<svg xmlns="http://www.w3.org/2000/svg" xmlns:xlink="http://www.w3.org/1999/xlink" width="500" zoomAndPan="magnify" viewBox="0 0 375 374.999991" height="500" preserveAspectRatio="xMidYMid meet" version="1.2"><defs><clipPath id="ba1b60239d"><path d="M 228 105 L 293 105 L 293 150 L 228 150 Z M 228 105 "/></clipPath><clipPath id="fbc5c5e0af"><path d="M 232.449219 98.207031 L 295.570312 111.480469 L 286.15625 156.25 L 223.035156 142.980469 Z M 232.449219 98.207031 "/></clipPath><clipPath id="4899a7d785"><path d="M 232.449219 98.207031 L 295.570312 111.480469 L 286.15625 156.25 L 223.035156 142.980469 Z M 232.449219 98.207031 "/></clipPath><clipPath id="e07c86ebb2"><path d="M 91.6875 193.785156 L 282.9375 193.785156 L 282.9375 194.535156 L 91.6875 194.535156 Z M 91.6875 193.785156 "/></clipPath></defs><g id="dfea0e925a"><g style="fill:#3877aa;fill-opacity:1;"><g transform="translate(104.140441, 189.798496)"><path style="stroke:none" d="M 1.78125 0 C 2.695312 -4.039062 3.378906 -8.3125 3.828125 -12.8125 C 4.285156 -17.320312 4.515625 -21.878906 4.515625 -26.484375 C 4.515625 -31.085938 4.285156 -35.640625 3.828125 -40.140625 C 3.378906 -44.640625 2.695312 -48.914062 1.78125 -52.96875 L 25.59375 -52.96875 C 26.9375 -52.96875 28.421875 -52.867188 30.046875 -52.671875 C 31.671875 -52.472656 33.285156 -52.125 34.890625 -51.625 C 36.503906 -51.125 37.972656 -50.4375 39.296875 -49.5625 C 40.628906 -48.695312 41.691406 -47.609375 42.484375 -46.296875 C 43.285156 -44.984375 43.6875 -43.394531 43.6875 -41.53125 C 43.6875 -39.945312 43.128906 -38.390625 42.015625 -36.859375 C 40.898438 -35.335938 39.367188 -33.953125 37.421875 -32.703125 C 35.484375 -31.453125 33.265625 -30.445312 30.765625 -29.6875 C 32.628906 -29.6875 34.601562 -29.347656 36.6875 -28.671875 C 38.769531 -28.003906 40.710938 -27.035156 42.515625 -25.765625 C 44.328125 -24.492188 45.804688 -22.992188 46.953125 -21.265625 C 48.097656 -19.546875 48.671875 -17.65625 48.671875 -15.59375 C 48.671875 -13.6875 48.203125 -11.800781 47.265625 -9.9375 C 46.335938 -8.070312 44.921875 -6.394531 43.015625 -4.90625 C 41.117188 -3.414062 38.710938 -2.222656 35.796875 -1.328125 C 32.878906 -0.441406 29.457031 0 25.53125 0 Z M 15.953125 -27.90625 L 15.953125 -11.1875 C 15.953125 -9.082031 16.21875 -7.40625 16.75 -6.15625 C 17.289062 -4.90625 17.96875 -3.984375 18.78125 -3.390625 C 19.59375 -2.796875 20.441406 -2.410156 21.328125 -2.234375 C 22.222656 -2.054688 23.046875 -1.96875 23.796875 -1.96875 C 25.347656 -1.96875 26.769531 -2.382812 28.0625 -3.21875 C 29.351562 -4.050781 30.515625 -5.140625 31.546875 -6.484375 C 32.578125 -7.835938 33.445312 -9.285156 34.15625 -10.828125 C 35.507812 -13.722656 35.90625 -16.28125 35.34375 -18.5 C 34.789062 -20.726562 33.5625 -22.582031 31.65625 -24.0625 C 29.75 -25.550781 27.414062 -26.625 24.65625 -27.28125 C 21.90625 -27.9375 19.003906 -28.144531 15.953125 -27.90625 Z M 25.46875 -51.125 C 24.875 -51.125 24.050781 -50.820312 23 -50.21875 C 21.945312 -49.625 20.875 -48.613281 19.78125 -47.1875 C 18.695312 -45.757812 17.773438 -43.804688 17.015625 -41.328125 C 16.265625 -38.847656 15.910156 -35.703125 15.953125 -31.890625 L 15.953125 -29.6875 C 20.953125 -29.925781 24.9375 -30.9375 27.90625 -32.71875 C 30.882812 -34.507812 32.453125 -37.148438 32.609375 -40.640625 C 32.648438 -41.628906 32.539062 -42.71875 32.28125 -43.90625 C 32.019531 -45.101562 31.601562 -46.242188 31.03125 -47.328125 C 30.457031 -48.421875 29.703125 -49.328125 28.765625 -50.046875 C 27.835938 -50.765625 26.738281 -51.125 25.46875 -51.125 Z M 25.46875 -51.125 "/></g><g transform="translate(152.461971, 189.798496)"><path style="stroke:none" d="M 20.40625 -5.359375 C 19.300781 -3.171875 17.785156 -1.519531 15.859375 -0.40625 C 13.929688 0.695312 11.957031 1.25 9.9375 1.25 C 7.988281 1.25 6.160156 0.753906 4.453125 -0.234375 C 2.753906 -1.222656 1.457031 -2.71875 0.5625 -4.71875 C -0.332031 -6.726562 -0.5625 -9.222656 -0.125 -12.203125 C 0.269531 -14.859375 1.28125 -17.15625 2.90625 -19.09375 C 4.539062 -21.039062 6.507812 -22.550781 8.8125 -23.625 C 11.113281 -24.695312 13.453125 -25.234375 15.828125 -25.234375 C 17.296875 -25.234375 18.722656 -25.015625 20.109375 -24.578125 C 21.503906 -24.140625 22.773438 -23.460938 23.921875 -22.546875 C 24.472656 -23.660156 24.878906 -25.007812 25.140625 -26.59375 C 25.398438 -28.1875 25.253906 -29.894531 24.703125 -31.71875 C 24.265625 -33.226562 23.566406 -34.378906 22.609375 -35.171875 C 21.660156 -35.960938 20.75 -36.359375 19.875 -36.359375 C 19.238281 -36.359375 18.703125 -36.148438 18.265625 -35.734375 C 17.828125 -35.316406 17.570312 -34.671875 17.5 -33.796875 C 17.332031 -31.816406 16.882812 -30.28125 16.15625 -29.1875 C 15.425781 -28.09375 14.550781 -27.316406 13.53125 -26.859375 C 12.519531 -26.410156 11.519531 -26.125 10.53125 -26 C 8.75 -25.800781 7.320312 -26.085938 6.25 -26.859375 C 5.175781 -27.640625 4.628906 -28.632812 4.609375 -29.84375 C 4.585938 -31.050781 5.210938 -32.210938 6.484375 -33.328125 C 8.304688 -34.953125 10.398438 -36.179688 12.765625 -37.015625 C 15.128906 -37.847656 17.476562 -38.265625 19.8125 -38.265625 C 21.84375 -38.265625 23.769531 -37.9375 25.59375 -37.28125 C 27.414062 -36.625 29 -35.628906 30.34375 -34.296875 C 31.695312 -32.972656 32.671875 -31.28125 33.265625 -29.21875 C 33.859375 -27.15625 33.9375 -24.71875 33.5 -21.90625 C 33.226562 -19.957031 33 -17.910156 32.8125 -15.765625 C 32.632812 -13.628906 32.796875 -11.269531 33.296875 -8.6875 C 33.796875 -6.101562 34.894531 -3.207031 36.59375 0 L 20.953125 0 C 20.671875 -0.914062 20.5 -1.816406 20.4375 -2.703125 C 20.382812 -3.597656 20.375 -4.484375 20.40625 -5.359375 Z M 12.015625 -13.859375 C 11.503906 -11.796875 11.335938 -10 11.515625 -8.46875 C 11.691406 -6.945312 12.117188 -5.769531 12.796875 -4.9375 C 13.472656 -4.101562 14.242188 -3.6875 15.109375 -3.6875 C 16.023438 -3.6875 16.976562 -4.191406 17.96875 -5.203125 C 18.957031 -6.210938 19.847656 -7.804688 20.640625 -9.984375 C 21.441406 -12.171875 22 -15.007812 22.3125 -18.5 C 22.3125 -19.894531 22.035156 -20.910156 21.484375 -21.546875 C 20.929688 -22.179688 20.253906 -22.5 19.453125 -22.5 C 18.191406 -22.5 16.804688 -21.753906 15.296875 -20.265625 C 13.785156 -18.773438 12.691406 -16.640625 12.015625 -13.859375 Z M 12.015625 -13.859375 "/></g><g transform="translate(190.131341, 189.798496)"><path style="stroke:none" d="M 17.3125 0 L 1.671875 0 C 2.378906 -2.894531 2.941406 -6.117188 3.359375 -9.671875 C 3.773438 -13.222656 4.050781 -16.910156 4.1875 -20.734375 C 4.332031 -24.566406 4.332031 -28.394531 4.1875 -32.21875 C 4.050781 -36.050781 3.773438 -39.742188 3.359375 -43.296875 C 2.941406 -46.847656 2.378906 -50.070312 1.671875 -52.96875 L 17.3125 -52.96875 C 16.519531 -49.707031 15.894531 -46.070312 15.4375 -42.0625 C 14.988281 -38.0625 14.722656 -33.898438 14.640625 -29.578125 C 14.554688 -25.253906 14.65625 -21.007812 14.9375 -16.84375 C 15.488281 -20.8125 16.476562 -24.179688 17.90625 -26.953125 C 19.332031 -29.734375 21 -31.972656 22.90625 -33.671875 C 24.8125 -35.378906 26.71875 -36.59375 28.625 -37.3125 C 29.695312 -37.75 30.867188 -38.023438 32.140625 -38.140625 C 34.398438 -38.378906 36.171875 -38.148438 37.453125 -37.453125 C 38.742188 -36.765625 39.566406 -35.820312 39.921875 -34.625 C 40.285156 -33.4375 40.195312 -32.195312 39.65625 -30.90625 C 39.125 -29.625 38.15625 -28.484375 36.75 -27.484375 C 35.34375 -26.492188 33.523438 -25.882812 31.296875 -25.65625 C 29.160156 -25.414062 27.566406 -25.789062 26.515625 -26.78125 C 25.460938 -27.769531 25.191406 -28.941406 25.703125 -30.296875 C 25.941406 -30.929688 26.0625 -31.4375 26.0625 -31.8125 C 26.0625 -32.1875 25.882812 -32.375 25.53125 -32.375 C 25.25 -32.375 24.953125 -32.296875 24.640625 -32.140625 C 23.484375 -31.578125 22.3125 -30.492188 21.125 -28.890625 C 19.9375 -27.285156 18.925781 -25.171875 18.09375 -22.546875 C 19.875 -22.628906 21.488281 -22.800781 22.9375 -23.0625 C 24.382812 -23.320312 25.742188 -23.609375 27.015625 -23.921875 C 27.492188 -22.773438 28.097656 -21.359375 28.828125 -19.671875 C 29.566406 -17.984375 30.398438 -16.195312 31.328125 -14.3125 C 32.265625 -12.425781 33.25 -10.5625 34.28125 -8.71875 C 35.3125 -6.875 36.351562 -5.1875 37.40625 -3.65625 C 38.457031 -2.132812 39.457031 -0.914062 40.40625 0 L 24.75 0 C 24.59375 -1.269531 24.15625 -2.882812 23.4375 -4.84375 C 22.726562 -6.8125 21.828125 -8.972656 20.734375 -11.328125 C 19.648438 -13.691406 18.453125 -16.082031 17.140625 -18.5 C 16.703125 -16.082031 16.484375 -13.304688 16.484375 -10.171875 C 16.484375 -7.035156 16.757812 -3.644531 17.3125 0 Z M 17.3125 0 "/></g><g transform="translate(229.883536, 189.798496)"><path style="stroke:none" d="M 1.1875 -17.25 C 1.1875 -20.1875 1.671875 -22.914062 2.640625 -25.4375 C 3.617188 -27.957031 4.988281 -30.171875 6.75 -32.078125 C 8.519531 -33.984375 10.601562 -35.46875 13 -36.53125 C 15.40625 -37.601562 18.035156 -38.140625 20.890625 -38.140625 C 22.316406 -38.140625 23.789062 -37.972656 25.3125 -37.640625 C 26.84375 -37.304688 28.253906 -36.78125 29.546875 -36.0625 C 30.835938 -35.34375 31.898438 -34.398438 32.734375 -33.234375 C 33.566406 -32.066406 34.019531 -30.628906 34.09375 -28.921875 C 34.175781 -26.972656 33.726562 -25.195312 32.75 -23.59375 C 31.78125 -21.988281 30.460938 -20.570312 28.796875 -19.34375 C 27.128906 -18.113281 25.3125 -17.082031 23.34375 -16.25 C 21.382812 -15.414062 19.441406 -14.789062 17.515625 -14.375 C 15.597656 -13.957031 13.882812 -13.75 12.375 -13.75 C 12.5 -11.5625 12.945312 -9.457031 13.71875 -7.4375 C 14.488281 -5.414062 15.566406 -3.769531 16.953125 -2.5 C 18.347656 -1.226562 20.035156 -0.65625 22.015625 -0.78125 C 23.085938 -0.851562 23.78125 -1.296875 24.09375 -2.109375 C 24.414062 -2.921875 24.445312 -3.910156 24.1875 -5.078125 C 23.925781 -6.253906 23.46875 -7.394531 22.8125 -8.5 C 22.164062 -9.613281 21.425781 -10.46875 20.59375 -11.0625 C 22.132812 -12.289062 23.578125 -13.171875 24.921875 -13.703125 C 26.273438 -14.242188 27.507812 -14.515625 28.625 -14.515625 C 30.09375 -14.515625 31.257812 -14.117188 32.125 -13.328125 C 33 -12.535156 33.492188 -11.492188 33.609375 -10.203125 C 33.734375 -8.910156 33.359375 -7.515625 32.484375 -6.015625 C 31.140625 -3.753906 29.304688 -1.988281 26.984375 -0.71875 C 24.660156 0.550781 22.210938 1.1875 19.640625 1.1875 C 16.742188 1.1875 14.15625 0.691406 11.875 -0.296875 C 9.59375 -1.285156 7.65625 -2.644531 6.0625 -4.375 C 4.476562 -6.101562 3.269531 -8.078125 2.4375 -10.296875 C 1.601562 -12.515625 1.1875 -14.832031 1.1875 -17.25 Z M 13.390625 -25.34375 C 13.109375 -24.238281 12.859375 -22.800781 12.640625 -21.03125 C 12.421875 -19.269531 12.3125 -17.414062 12.3125 -15.46875 C 14.257812 -15.59375 16.015625 -16.269531 17.578125 -17.5 C 19.148438 -18.726562 20.472656 -20.253906 21.546875 -22.078125 C 22.617188 -23.898438 23.351562 -25.742188 23.75 -27.609375 C 24.414062 -30.660156 24.5 -32.890625 24 -34.296875 C 23.507812 -35.710938 22.75 -36.421875 21.71875 -36.421875 C 20.84375 -36.421875 19.878906 -35.972656 18.828125 -35.078125 C 17.773438 -34.179688 16.765625 -32.910156 15.796875 -31.265625 C 14.828125 -29.617188 14.023438 -27.644531 13.390625 -25.34375 Z M 13.390625 -25.34375 "/></g></g><g clip-rule="nonzero" clip-path="url(#ba1b60239d)"><g clip-rule="nonzero" clip-path="url(#fbc5c5e0af)"><g clip-rule="nonzero" clip-path="url(#4899a7d785)"><path style=" stroke:none;fill-rule:nonzero;fill:#3877aa;fill-opacity:1;" d="M 292.070312 128.355469 C 292.648438 124.382812 290.40625 120.226562 286.847656 118.429688 C 284.5625 117.273438 281.742188 116.964844 279.277344 117.710938 C 279.253906 117.34375 279.214844 116.976562 279.15625 116.613281 C 278.480469 112.242188 275.058594 108.671875 271.078125 106.96875 C 270.296875 106.625 269.492188 106.347656 268.671875 106.117188 C 266.339844 105.335938 263.992188 105.757812 261.753906 106.5 C 255.933594 108.421875 250.585938 112.660156 244.210938 111.992188 C 244.101562 111.976562 243.992188 112.039062 243.957031 112.148438 C 243.917969 112.269531 243.984375 112.398438 244.105469 112.433594 C 245.128906 112.789062 246.207031 112.976562 247.292969 113.023438 C 250.535156 113.144531 253.746094 112.078125 256.707031 110.976562 C 260.136719 109.800781 264.398438 107.484375 267.847656 108.589844 C 272.171875 109.71875 276.238281 112.59375 277.6875 116.972656 C 277.824219 117.371094 277.941406 117.78125 278.03125 118.195312 C 277.355469 118.519531 276.726562 118.933594 276.164062 119.445312 C 275.476562 120.09375 274.945312 120.945312 274.777344 121.859375 C 274.757812 121.957031 274.804688 122.058594 274.898438 122.105469 C 275.015625 122.164062 275.152344 122.117188 275.210938 122.003906 C 275.585938 121.265625 276.160156 120.695312 276.824219 120.277344 C 277.273438 120.011719 277.75 119.792969 278.246094 119.621094 C 278.570312 119.507812 278.902344 119.414062 279.242188 119.34375 C 282.191406 118.714844 285.539062 119.613281 287.625 121.714844 C 289.066406 123.1875 289.917969 125.257812 289.820312 127.320312 C 289.757812 128.292969 289.492188 129.234375 289.199219 130.15625 C 288.300781 132.910156 286.328125 135.292969 283.515625 136.074219 C 281.820312 136.5625 280.023438 136.695312 278.269531 136.472656 C 274.945312 136.125 272.65625 134.355469 270.132812 132.667969 C 272.371094 132.304688 274.722656 131.101562 275.265625 128.78125 C 275.320312 128.535156 274.984375 128.390625 274.84375 128.601562 C 273.957031 129.863281 272.65625 130.519531 271.210938 130.902344 C 270.222656 131.171875 269.207031 131.257812 268.199219 131.457031 C 267.863281 131.265625 267.519531 131.082031 267.167969 130.90625 C 266.320312 130.492188 265.449219 130.144531 264.5625 129.859375 C 266.753906 128.882812 268.667969 127.035156 269.570312 124.984375 C 270.054688 123.921875 270.375 122.699219 270.117188 121.535156 C 270.0625 121.273438 269.667969 121.3125 269.664062 121.578125 C 269.605469 122.625 269.152344 123.59375 268.585938 124.457031 C 267.085938 126.839844 264.566406 128.410156 261.863281 129.039062 C 261.78125 129.0625 261.699219 129.082031 261.617188 129.101562 C 260.585938 128.90625 259.546875 128.761719 258.5 128.664062 C 258.582031 128.605469 258.660156 128.546875 258.738281 128.484375 C 260.144531 127.40625 261.257812 125.804688 261.53125 124.054688 C 261.550781 123.957031 261.5 123.855469 261.402344 123.808594 C 261.285156 123.753906 261.148438 123.808594 261.09375 123.925781 C 260.875 124.398438 260.609375 124.835938 260.3125 125.242188 C 259.414062 126.425781 258.164062 127.320312 256.785156 127.84375 C 253.265625 129.199219 248.691406 127.824219 245.933594 125.433594 C 244.453125 124.074219 243.503906 122.171875 242.390625 120.445312 C 242.253906 120.234375 241.929688 120.367188 241.964844 120.609375 C 242.144531 121.683594 242.410156 122.742188 242.808594 123.789062 C 243.613281 125.988281 245.011719 127.535156 246.886719 128.617188 C 246.121094 128.699219 245.363281 128.824219 244.617188 129.003906 C 242.640625 129.464844 240.617188 130.3125 238.632812 129.953125 C 234.167969 129.652344 231.289062 122.554688 231.167969 118.632812 C 231.027344 115.289062 233.195312 112 236.382812 110.882812 C 240.421875 109.4375 244.894531 110.460938 249.136719 109.675781 C 251.089844 109.367188 252.898438 108.457031 254.710938 107.757812 C 254.972656 107.660156 254.859375 107.265625 254.578125 107.324219 C 252.703125 107.769531 250.910156 108.472656 248.996094 108.605469 C 246.152344 108.84375 243.21875 108.378906 240.320312 108.410156 C 238.28125 108.417969 236.125 108.722656 234.269531 109.679688 C 231.097656 111.261719 228.988281 114.675781 228.921875 118.230469 C 228.820312 121.8125 230.496094 126.308594 232.738281 129.097656 C 234.09375 130.804688 236.09375 132.230469 238.371094 132.410156 C 238.964844 132.519531 239.558594 132.546875 240.132812 132.519531 C 239.941406 135.292969 239.691406 138.066406 239.328125 140.820312 C 239.117188 142.46875 238.75 144.421875 238.382812 146.042969 C 238.382812 146.042969 240.570312 145.53125 240.570312 145.53125 C 242.6875 145.050781 245 144.957031 247.207031 144.964844 C 253.257812 145.054688 262.035156 146.058594 267.160156 149.351562 C 267.257812 149.417969 267.390625 149.398438 267.46875 149.308594 C 267.546875 149.210938 267.53125 149.066406 267.433594 148.984375 C 262.457031 145.117188 253.558594 143.289062 247.328125 142.636719 C 245.53125 142.476562 243.761719 142.371094 241.964844 142.457031 C 242.300781 139.039062 242.390625 135.617188 242.433594 132.183594 C 243.773438 131.882812 245.011719 131.472656 246.375 131.269531 C 248.007812 131.023438 249.679688 131.023438 251.355469 131.019531 C 253.890625 131.019531 256.472656 131.054688 258.960938 131.363281 C 261.820312 131.714844 264.585938 132.421875 267.066406 133.855469 C 268.519531 134.699219 269.84375 135.710938 271.277344 136.609375 C 270.460938 139.1875 269.898438 141.894531 269.269531 144.527344 C 266.917969 143.148438 264.378906 142.132812 261.773438 141.355469 C 258.570312 140.4375 255.164062 139.921875 251.855469 140.453125 C 251.742188 140.46875 251.65625 140.570312 251.664062 140.6875 C 251.667969 140.8125 251.777344 140.910156 251.902344 140.90625 C 253.515625 140.828125 255.121094 141.023438 256.683594 141.378906 C 260.5625 142.28125 264.230469 144.050781 267.476562 146.332031 C 268.113281 146.785156 268.71875 147.269531 269.273438 147.769531 C 269.273438 147.769531 270.941406 149.039062 270.941406 149.039062 C 271.078125 148.503906 271.519531 146.871094 271.632812 146.355469 C 272.261719 143.605469 272.777344 140.601562 273.542969 137.832031 C 276.878906 139.3125 280.753906 139.566406 284.246094 138.492188 C 288.820312 137.121094 291.382812 132.863281 292.070312 128.355469 Z M 292.070312 128.355469 "/></g></g></g><g clip-rule="nonzero" clip-path="url(#e07c86ebb2)"><path style=" stroke:none;fill-rule:nonzero;fill:#3877aa;fill-opacity:1;" d="M 91.6875 193.820312 L 283.300781 193.820312 L 283.300781 194.699219 L 91.6875 194.699219 Z M 91.6875 193.820312 "/><path style="fill:none;stroke-width:200;stroke-linecap:butt;stroke-linejoin:miter;stroke:#3877aa;stroke-opacity:1;stroke-miterlimit:4;" d="M -0.000778772 0.0009293 L -0.000778772 1.266554 L 255.483629 1.266554 L 255.483629 0.0009293 L -0.000778772 0.0009293 " transform="matrix(0.75,0,0,0.75,91.688084,193.784459)"/></g><g style="fill:#3877aa;fill-opacity:1;"><g transform="translate(64.371797, 227.32144)"><path style="stroke:none" d="M 25.75 -22.8125 L 25.4375 -22.8125 C 24.894531 -22.8125 24.351562 -22.648438 23.8125 -22.328125 C 23.269531 -22.003906 22.832031 -21.507812 22.5 -20.84375 L 14.609375 -4.21875 C 13.472656 -1.738281 12.878906 -0.164062 12.828125 0.5 L 12.484375 0.5 L 2.203125 -20.765625 C 1.503906 -22.128906 0.519531 -22.8125 -0.75 -22.8125 L -1.015625 -22.8125 L -1.015625 -23.203125 L 10.3125 -23.203125 L 10.3125 -22.859375 L 10.015625 -22.859375 C 9.523438 -22.859375 9.15625 -22.695312 8.90625 -22.375 C 8.664062 -22.050781 8.546875 -21.753906 8.546875 -21.484375 C 8.546875 -21.210938 8.59375 -20.9375 8.6875 -20.65625 L 14.109375 -8.078125 L 19.640625 -20.65625 C 19.765625 -20.957031 19.828125 -21.238281 19.828125 -21.5 C 19.828125 -21.757812 19.703125 -22.050781 19.453125 -22.375 C 19.210938 -22.695312 18.847656 -22.859375 18.359375 -22.859375 L 18.046875 -22.859375 L 18.046875 -23.203125 L 25.75 -23.203125 Z M 25.75 -22.8125 "/></g></g><g style="fill:#3877aa;fill-opacity:1;"><g transform="translate(88.967128, 227.32144)"><path style="stroke:none" d="M 25.75 -0.390625 L 26.0625 -0.390625 L 26.0625 0 L 14.6875 0 L 14.6875 -0.390625 L 15 -0.390625 C 15.507812 -0.390625 15.878906 -0.539062 16.109375 -0.84375 C 16.347656 -1.15625 16.46875 -1.441406 16.46875 -1.703125 C 16.46875 -1.960938 16.414062 -2.234375 16.3125 -2.515625 L 14.796875 -6.078125 L 6.609375 -6.078125 L 5.0625 -2.46875 C 4.957031 -2.21875 4.90625 -1.957031 4.90625 -1.6875 C 4.90625 -1.414062 5.023438 -1.128906 5.265625 -0.828125 C 5.515625 -0.535156 5.894531 -0.390625 6.40625 -0.390625 L 6.71875 -0.390625 L 6.71875 0 L -1.015625 0 L -1.015625 -0.390625 L -0.703125 -0.390625 C -0.160156 -0.390625 0.378906 -0.554688 0.921875 -0.890625 C 1.460938 -1.222656 1.898438 -1.722656 2.234375 -2.390625 L 10.234375 -19.5625 C 11.367188 -22.113281 11.960938 -23.6875 12.015625 -24.28125 L 12.375 -24.28125 L 22.734375 -2.546875 C 23.066406 -1.804688 23.507812 -1.257812 24.0625 -0.90625 C 24.613281 -0.5625 25.175781 -0.390625 25.75 -0.390625 Z M 7.265625 -7.578125 L 14.140625 -7.578125 L 10.75 -15.65625 Z M 7.265625 -7.578125 "/></g></g><g style="fill:#3877aa;fill-opacity:1;"><g transform="translate(113.871839, 227.32144)"><path style="stroke:none" d="M 1.3125 0 L 1.3125 -0.390625 L 1.78125 -0.390625 C 2.375 -0.390625 2.867188 -0.582031 3.265625 -0.96875 C 3.671875 -1.351562 3.875 -1.828125 3.875 -2.390625 L 3.875 -20.765625 C 3.875 -21.335938 3.664062 -21.820312 3.25 -22.21875 C 2.832031 -22.613281 2.34375 -22.8125 1.78125 -22.8125 L 1.3125 -22.8125 L 1.3125 -23.203125 L 12.0625 -23.203125 L 12.0625 -22.8125 L 11.609375 -22.8125 C 11.015625 -22.8125 10.507812 -22.617188 10.09375 -22.234375 C 9.675781 -21.847656 9.46875 -21.359375 9.46875 -20.765625 L 9.46875 -1.546875 L 14.109375 -1.546875 C 15.710938 -1.566406 17.066406 -2.0625 18.171875 -3.03125 C 19.285156 -4 20.097656 -5.359375 20.609375 -7.109375 L 21.03125 -7.109375 L 19.53125 0 Z M 1.3125 0 "/></g></g><g style="fill:#3877aa;fill-opacity:1;"><g transform="translate(135.064041, 227.32144)"><path style="stroke:none" d="M 19.53125 0 L 1.3125 0 L 1.3125 -0.390625 L 1.78125 -0.390625 C 2.375 -0.390625 2.867188 -0.582031 3.265625 -0.96875 C 3.671875 -1.351562 3.882812 -1.828125 3.90625 -2.390625 L 3.90625 -20.8125 C 3.882812 -21.375 3.671875 -21.847656 3.265625 -22.234375 C 2.867188 -22.617188 2.375 -22.8125 1.78125 -22.8125 L 1.3125 -22.8125 L 1.3125 -23.203125 L 14.921875 -23.203125 C 15.617188 -23.203125 16.378906 -23.265625 17.203125 -23.390625 C 18.035156 -23.523438 18.617188 -23.65625 18.953125 -23.78125 L 18.953125 -17.640625 L 18.5625 -17.640625 L 18.5625 -17.984375 C 18.5625 -19.117188 18.25 -20.007812 17.625 -20.65625 C 17.007812 -21.300781 16.148438 -21.632812 15.046875 -21.65625 L 9.46875 -21.65625 L 9.46875 -12.265625 L 13.890625 -12.265625 C 14.765625 -12.285156 15.472656 -12.578125 16.015625 -13.140625 C 16.554688 -13.710938 16.828125 -14.4375 16.828125 -15.3125 L 16.828125 -15.578125 L 17.203125 -15.578125 L 17.203125 -7.390625 L 16.828125 -7.390625 L 16.828125 -7.65625 C 16.828125 -8.863281 16.375 -9.738281 15.46875 -10.28125 C 15 -10.570312 14.484375 -10.71875 13.921875 -10.71875 L 9.46875 -10.71875 L 9.46875 -1.546875 L 14.109375 -1.546875 C 15.710938 -1.566406 17.070312 -2.0625 18.1875 -3.03125 C 19.3125 -4 20.132812 -5.359375 20.65625 -7.109375 L 21 -7.109375 Z M 19.53125 0 "/></g></g><g style="fill:#3877aa;fill-opacity:1;"><g transform="translate(156.836321, 227.32144)"><path style="stroke:none" d="M 18.484375 -23.203125 L 29.359375 -23.203125 L 29.359375 -22.8125 L 28.6875 -22.8125 C 28.101562 -22.8125 27.609375 -22.628906 27.203125 -22.265625 C 26.804688 -21.910156 26.59375 -21.453125 26.5625 -20.890625 L 26.5625 -3.984375 C 26.5625 -2.378906 26.664062 -1.0625 26.875 -0.03125 L 26.953125 0.5 L 26.609375 0.5 L 8.859375 -15.15625 L 8.859375 -2.359375 C 8.878906 -1.796875 9.085938 -1.328125 9.484375 -0.953125 C 9.890625 -0.578125 10.390625 -0.390625 10.984375 -0.390625 L 11.640625 -0.390625 L 11.640625 0 L 0.8125 0 L 0.8125 -0.390625 L 1.4375 -0.390625 C 2.03125 -0.390625 2.53125 -0.578125 2.9375 -0.953125 C 3.351562 -1.328125 3.5625 -1.796875 3.5625 -2.359375 L 3.5625 -19.375 C 3.5625 -20.914062 3.457031 -22.191406 3.25 -23.203125 L 3.171875 -23.75 L 3.515625 -23.703125 L 21.234375 -8.125 L 21.234375 -20.84375 C 21.234375 -21.40625 21.03125 -21.875 20.625 -22.25 C 20.226562 -22.625 19.734375 -22.8125 19.140625 -22.8125 L 18.484375 -22.8125 Z M 18.484375 -23.203125 "/></g></g><g style="fill:#3877aa;fill-opacity:1;"><g transform="translate(186.961735, 227.32144)"><path style="stroke:none" d="M 22.390625 -17.71875 L 22.390625 -18.0625 C 22.390625 -19.164062 22.078125 -20.039062 21.453125 -20.6875 C 20.835938 -21.332031 19.976562 -21.664062 18.875 -21.6875 L 14.390625 -21.6875 L 14.390625 -2.390625 C 14.410156 -1.828125 14.625 -1.351562 15.03125 -0.96875 C 15.445312 -0.582031 15.941406 -0.390625 16.515625 -0.390625 L 16.9375 -0.390625 L 16.9375 0 L 6.265625 0 L 6.265625 -0.390625 L 6.65625 -0.390625 C 7.25 -0.390625 7.75 -0.582031 8.15625 -0.96875 C 8.570312 -1.351562 8.78125 -1.84375 8.78125 -2.4375 L 8.78125 -21.6875 L 4.328125 -21.6875 C 3.191406 -21.664062 2.316406 -21.332031 1.703125 -20.6875 C 1.085938 -20.039062 0.78125 -19.164062 0.78125 -18.0625 L 0.78125 -17.71875 L 0.390625 -17.71875 L 0.390625 -23.828125 C 0.742188 -23.691406 1.335938 -23.554688 2.171875 -23.421875 C 3.015625 -23.296875 3.773438 -23.234375 4.453125 -23.234375 L 18.71875 -23.234375 C 19.851562 -23.234375 20.785156 -23.316406 21.515625 -23.484375 C 22.253906 -23.660156 22.675781 -23.773438 22.78125 -23.828125 L 22.78125 -17.71875 Z M 22.390625 -17.71875 "/></g></g><g style="fill:#3877aa;fill-opacity:1;"><g transform="translate(210.126212, 227.32144)"><path style="stroke:none" d="M 1.3125 -0.390625 L 1.78125 -0.390625 C 2.394531 -0.390625 2.921875 -0.585938 3.359375 -0.984375 C 3.796875 -1.378906 4.015625 -1.863281 4.015625 -2.4375 L 4.015625 -20.765625 C 4.015625 -21.335938 3.796875 -21.820312 3.359375 -22.21875 C 2.921875 -22.613281 2.394531 -22.8125 1.78125 -22.8125 L 1.3125 -22.8125 L 1.3125 -23.203125 L 12.296875 -23.203125 L 12.296875 -22.8125 L 11.828125 -22.8125 C 11.234375 -22.8125 10.71875 -22.617188 10.28125 -22.234375 C 9.84375 -21.847656 9.613281 -21.375 9.59375 -20.8125 L 9.59375 -2.4375 C 9.613281 -1.84375 9.84375 -1.351562 10.28125 -0.96875 C 10.71875 -0.582031 11.234375 -0.390625 11.828125 -0.390625 L 12.296875 -0.390625 L 12.296875 0 L 1.3125 0 Z M 1.3125 -0.390625 "/></g></g><g style="fill:#3877aa;fill-opacity:1;"><g transform="translate(223.738729, 227.32144)"><path style="stroke:none" d="M 18.484375 -23.203125 L 29.359375 -23.203125 L 29.359375 -22.8125 L 28.6875 -22.8125 C 28.101562 -22.8125 27.609375 -22.628906 27.203125 -22.265625 C 26.804688 -21.910156 26.59375 -21.453125 26.5625 -20.890625 L 26.5625 -3.984375 C 26.5625 -2.378906 26.664062 -1.0625 26.875 -0.03125 L 26.953125 0.5 L 26.609375 0.5 L 8.859375 -15.15625 L 8.859375 -2.359375 C 8.878906 -1.796875 9.085938 -1.328125 9.484375 -0.953125 C 9.890625 -0.578125 10.390625 -0.390625 10.984375 -0.390625 L 11.640625 -0.390625 L 11.640625 0 L 0.8125 0 L 0.8125 -0.390625 L 1.4375 -0.390625 C 2.03125 -0.390625 2.53125 -0.578125 2.9375 -0.953125 C 3.351562 -1.328125 3.5625 -1.796875 3.5625 -2.359375 L 3.5625 -19.375 C 3.5625 -20.914062 3.457031 -22.191406 3.25 -23.203125 L 3.171875 -23.75 L 3.515625 -23.703125 L 21.234375 -8.125 L 21.234375 -20.84375 C 21.234375 -21.40625 21.03125 -21.875 20.625 -22.25 C 20.226562 -22.625 19.734375 -22.8125 19.140625 -22.8125 L 18.484375 -22.8125 Z M 18.484375 -23.203125 "/></g></g><g style="fill:#3877aa;fill-opacity:1;"><g transform="translate(253.864143, 227.32144)"><path style="stroke:none" d="M 19.53125 0 L 1.3125 0 L 1.3125 -0.390625 L 1.78125 -0.390625 C 2.375 -0.390625 2.867188 -0.582031 3.265625 -0.96875 C 3.671875 -1.351562 3.882812 -1.828125 3.90625 -2.390625 L 3.90625 -20.8125 C 3.882812 -21.375 3.671875 -21.847656 3.265625 -22.234375 C 2.867188 -22.617188 2.375 -22.8125 1.78125 -22.8125 L 1.3125 -22.8125 L 1.3125 -23.203125 L 14.921875 -23.203125 C 15.617188 -23.203125 16.378906 -23.265625 17.203125 -23.390625 C 18.035156 -23.523438 18.617188 -23.65625 18.953125 -23.78125 L 18.953125 -17.640625 L 18.5625 -17.640625 L 18.5625 -17.984375 C 18.5625 -19.117188 18.25 -20.007812 17.625 -20.65625 C 17.007812 -21.300781 16.148438 -21.632812 15.046875 -21.65625 L 9.46875 -21.65625 L 9.46875 -12.265625 L 13.890625 -12.265625 C 14.765625 -12.285156 15.472656 -12.578125 16.015625 -13.140625 C 16.554688 -13.710938 16.828125 -14.4375 16.828125 -15.3125 L 16.828125 -15.578125 L 17.203125 -15.578125 L 17.203125 -7.390625 L 16.828125 -7.390625 L 16.828125 -7.65625 C 16.828125 -8.863281 16.375 -9.738281 15.46875 -10.28125 C 15 -10.570312 14.484375 -10.71875 13.921875 -10.71875 L 9.46875 -10.71875 L 9.46875 -1.546875 L 14.109375 -1.546875 C 15.710938 -1.566406 17.070312 -2.0625 18.1875 -3.03125 C 19.3125 -4 20.132812 -5.359375 20.65625 -7.109375 L 21 -7.109375 Z M 19.53125 0 "/></g></g><g style="fill:#3877aa;fill-opacity:1;"><g transform="translate(275.636423, 227.32144)"><path style="stroke:none" d="M 1.734375 -22.234375 C 2.953125 -22.703125 3.5625 -23.515625 3.5625 -24.671875 C 3.5625 -25.367188 3.265625 -26.054688 2.671875 -26.734375 C 2.078125 -27.421875 1.78125 -28.175781 1.78125 -29 C 1.78125 -29.820312 2.023438 -30.484375 2.515625 -30.984375 C 3.003906 -31.492188 3.597656 -31.75 4.296875 -31.75 C 5.710938 -31.75 6.691406 -31.128906 7.234375 -29.890625 C 7.585938 -29.117188 7.765625 -28.472656 7.765625 -27.953125 C 7.765625 -26.484375 7.457031 -25.273438 6.84375 -24.328125 C 5.738281 -22.597656 4.296875 -21.734375 2.515625 -21.734375 C 2.285156 -21.734375 2.066406 -21.757812 1.859375 -21.8125 Z M 1.734375 -22.234375 "/></g></g><g style="fill:#3877aa;fill-opacity:1;"><g transform="translate(284.956353, 227.32144)"><path style="stroke:none" d="M 1.78125 -3.171875 C 1.78125 -4.847656 2.15625 -6.28125 2.90625 -7.46875 L 3.203125 -7.46875 C 3.179688 -7.28125 3.171875 -7.113281 3.171875 -6.96875 C 3.171875 -5.394531 3.726562 -4.015625 4.84375 -2.828125 C 5.96875 -1.640625 7.535156 -1.046875 9.546875 -1.046875 C 10.992188 -1.046875 12.109375 -1.378906 12.890625 -2.046875 C 13.679688 -2.722656 14.078125 -3.472656 14.078125 -4.296875 C 14.078125 -5.117188 13.847656 -5.78125 13.390625 -6.28125 C 12.941406 -6.78125 12.203125 -7.367188 11.171875 -8.046875 L 5.6875 -11.53125 C 3.363281 -12.96875 2.203125 -14.820312 2.203125 -17.09375 C 2.203125 -17.320312 2.21875 -17.566406 2.25 -17.828125 C 2.394531 -19.660156 3.097656 -21.097656 4.359375 -22.140625 C 5.628906 -23.179688 7.117188 -23.703125 8.828125 -23.703125 C 10.546875 -23.703125 12.359375 -23.585938 14.265625 -23.359375 L 16.359375 -23.359375 L 15.8125 -18.25 L 15.46875 -18.25 C 15.46875 -19.46875 15.046875 -20.421875 14.203125 -21.109375 C 13.367188 -21.804688 12.257812 -22.15625 10.875 -22.15625 C 9.5 -22.15625 8.410156 -21.863281 7.609375 -21.28125 C 6.816406 -20.707031 6.421875 -19.941406 6.421875 -18.984375 C 6.421875 -18.210938 6.804688 -17.546875 7.578125 -16.984375 C 7.890625 -16.742188 8.34375 -16.445312 8.9375 -16.09375 L 15.078125 -12.296875 C 17.191406 -11.003906 18.25 -9.226562 18.25 -6.96875 C 18.25 -4.5625 17.40625 -2.710938 15.71875 -1.421875 C 14.03125 -0.140625 11.847656 0.5 9.171875 0.5 C 7.515625 0.5 6.054688 0.304688 4.796875 -0.078125 C 3.535156 -0.460938 2.609375 -0.953125 2.015625 -1.546875 C 1.859375 -2.015625 1.78125 -2.554688 1.78125 -3.171875 Z M 1.78125 -3.171875 "/></g></g></g></svg>